<svg width="32" height="32" xmlns="http://www.w3.org/2000/svg">

 <g>
  <title>background</title>
  <rect fill="none" id="canvas_background" height="402" width="582" y="-1" x="-1"/>
 </g>
 <g>
  <title>Layer 1</title>
  <path id="svg_2" fill="#ffffff" d="m16.499,9.162c-2.735,0 -5.469,-0.315 -8.123,-0.937c-0.269,-0.063 -0.436,-0.331 -0.373,-0.601c0.063,-0.268 0.325,-0.435 0.602,-0.373c5.793,1.358 11.95,1.187 17.678,-0.498c0.27,-0.076 0.544,0.073 0.621,0.338c0.078,0.266 -0.073,0.543 -0.338,0.621c-3.271,0.962 -6.658,1.45 -10.067,1.45z"/>
  <path id="svg_3" fill="#ffffff" d="m26.424,26.362c-0.047,0 -0.094,-0.007 -0.142,-0.021c-6.359,-1.871 -13.207,-1.871 -19.566,0c-0.269,0.075 -0.544,-0.073 -0.621,-0.338c-0.078,-0.266 0.073,-0.543 0.338,-0.621c6.545,-1.926 13.588,-1.926 20.133,0c0.265,0.078 0.416,0.355 0.338,0.621c-0.064,0.219 -0.264,0.359 -0.48,0.359z"/>
  <path id="svg_4" fill="#ffffff" d="m15.888,30.639c-0.098,0 -0.195,-0.028 -0.282,-0.087c-4.667,-3.185 -7.453,-8.422 -7.453,-14.009c0,-4.527 1.781,-8.788 5.017,-11.998c0.197,-0.197 0.514,-0.193 0.707,0.002c0.195,0.196 0.193,0.513 -0.002,0.707c-3.045,3.021 -4.722,7.03 -4.722,11.289c0,5.256 2.623,10.185 7.018,13.183c0.228,0.155 0.286,0.467 0.131,0.695c-0.098,0.142 -0.255,0.218 -0.414,0.218z"/>
  <path id="svg_5" fill="#ffffff" d="m17.153,30.639c-0.159,0 -0.316,-0.076 -0.413,-0.218c-0.155,-0.229 -0.097,-0.54 0.131,-0.695c4.395,-2.998 7.018,-7.927 7.018,-13.183s-2.623,-10.185 -7.018,-13.183c-0.228,-0.155 -0.286,-0.467 -0.131,-0.695c0.156,-0.228 0.468,-0.284 0.695,-0.131c4.667,3.185 7.453,8.422 7.453,14.009s-2.786,10.824 -7.453,14.009c-0.086,0.058 -0.184,0.087 -0.282,0.087z"/>
  <path id="svg_7" fill="#ffffff" d="m16.499,30.49c-0.276,0 -0.5,-0.224 -0.5,-0.5l0,-26.894c0,-0.276 0.224,-0.5 0.5,-0.5s0.5,0.224 0.5,0.5l0,26.894c0,0.277 -0.224,0.5 -0.5,0.5z"/>
  <path id="svg_9" fill="#ffffff" d="m30.446,17.043l-25.894,0c-0.276,0 -0.5,-0.224 -0.5,-0.5s0.224,-0.5 0.5,-0.5l25.895,0c0.276,0 0.5,0.224 0.5,0.5s-0.224,0.5 -0.501,0.5z"/>
  <path id="svg_10" fill="#ffffff" d="m16.499,31.043c-7.995,0 -14.5,-6.505 -14.5,-14.5c0,-3.521 1.278,-6.919 3.6,-9.565c0.182,-0.208 0.497,-0.228 0.706,-0.046c0.207,0.182 0.227,0.498 0.046,0.706c-2.161,2.463 -3.352,5.626 -3.352,8.905c0,7.444 6.056,13.5 13.5,13.5s13.5,-6.056 13.5,-13.5s-6.056,-13.5 -13.5,-13.5c-3.078,0 -5.976,1.008 -8.379,2.915c-0.216,0.172 -0.53,0.137 -0.702,-0.081c-0.172,-0.216 -0.136,-0.53 0.081,-0.702c2.581,-2.049 5.693,-3.132 9,-3.132c7.995,0 14.5,6.505 14.5,14.5s-6.505,14.5 -14.5,14.5z"/>
 </g>
</svg>